<svg width="16" height="17" viewBox="0 0 16 17" fill="none" xmlns="http://www.w3.org/2000/svg">
<path fill-rule="evenodd" clip-rule="evenodd" d="M0.5 0C0.223858 0 0 0.223858 0 0.5V16.5C0 16.7761 0.223858 17 0.5 17C0.776142 17 1 16.7761 1 16.5V0.5C1 0.223858 0.776142 0 0.5 0ZM3.5 9H14.2929L11.1464 12.1464C10.9512 12.3417 10.9512 12.6583 11.1464 12.8536C11.3417 13.0488 11.6583 13.0488 11.8536 12.8536L15.8536 8.85355C16.0488 8.65829 16.0488 8.34171 15.8536 8.14645L11.8536 4.14645C11.6583 3.95118 11.3417 3.95118 11.1464 4.14645C10.9512 4.34171 10.9512 4.65829 11.1464 4.85355L14.2929 8H3.5C3.22386 8 3 8.22386 3 8.5C3 8.77614 3.22386 9 3.5 9Z" fill="white"/>
</svg>
