<svg width="10" height="13" viewBox="0 0 10 13" fill="none" xmlns="http://www.w3.org/2000/svg">
<path fill-rule="evenodd" clip-rule="evenodd" d="M10 5.90278C10 5.06286 9.38651 4.36225 8.57143 4.2014V3.47222C8.57143 1.55457 6.97245 0 5 0C3.02755 0 1.42857 1.55457 1.42857 3.47222V4.2014C0.613486 4.36225 0 5.06286 0 5.90278V10.7639C0 11.7227 0.799492 12.5 1.78571 12.5H8.21429C9.20051 12.5 10 11.7227 10 10.7639V5.90278ZM7.85714 4.16667V3.47222C7.85714 1.9381 6.57796 0.694444 5 0.694444C3.42204 0.694444 2.14286 1.9381 2.14286 3.47222V4.16667H7.85714ZM8.29689 4.86416C8.27038 4.87027 8.24272 4.8735 8.21428 4.8735C8.18144 4.8735 8.14962 4.86918 8.11941 4.86111H1.78571C1.19398 4.86111 0.714286 5.32748 0.714286 5.90278V10.7639C0.714286 11.3392 1.19398 11.8056 1.78571 11.8056H8.21428C8.80602 11.8056 9.28571 11.3392 9.28571 10.7639V5.90278C9.28571 5.35451 8.85003 4.90517 8.29689 4.86416ZM4.28571 7.63889V7.90414C4.28571 8.36083 4.39508 8.81124 4.60515 9.21972L4.80258 9.6036C4.83997 9.6763 4.9164 9.72222 5 9.72222C5.0836 9.72222 5.16003 9.6763 5.19742 9.6036L5.39485 9.21972C5.60492 8.81124 5.71429 8.36083 5.71429 7.90414V7.63889C5.71429 7.25536 5.39449 6.94444 5 6.94444C4.60551 6.94444 4.28571 7.25536 4.28571 7.63889ZM5 6.25C4.21102 6.25 3.57143 6.87183 3.57143 7.63889V7.90414C3.57143 8.46864 3.70661 9.02538 3.96628 9.53028L4.1637 9.91416C4.32208 10.2221 4.64584 10.4167 5 10.4167C5.35416 10.4167 5.67792 10.2221 5.8363 9.91416L6.03372 9.53028C6.29339 9.02538 6.42857 8.46864 6.42857 7.90414V7.63889C6.42857 6.87183 5.78898 6.25 5 6.25Z" fill="white"/>
</svg>
