<svg width="12" height="12" viewBox="0 0 12 12" fill="none" xmlns="http://www.w3.org/2000/svg">
<path fill-rule="evenodd" clip-rule="evenodd" d="M8.30838 6.70552L10.9009 7.88393C11.5702 8.18819 12 8.8556 12 9.59087V10.125C12 11.1605 11.1605 12 10.125 12H1.875C0.839466 12 0 11.1605 0 10.125V9.59087C0 8.8556 0.429755 8.18819 1.09912 7.88393L3.69162 6.70552C2.81407 6.01915 2.25 4.95045 2.25 3.75C2.25 1.67893 3.92893 0 6 0C8.07107 0 9.75 1.67893 9.75 3.75C9.75 4.95045 9.18593 6.01915 8.30838 6.70552ZM4.47095 7.17523L1.40947 8.56681C1.00785 8.74937 0.75 9.14982 0.75 9.59098V10.1251C0.75 10.7464 1.25368 11.2501 1.875 11.2501H10.125C10.7463 11.2501 11.25 10.7464 11.25 10.1251V9.59098C11.25 9.14982 10.9921 8.74937 10.5905 8.56681L7.52905 7.17523C7.06208 7.38402 6.5446 7.50011 6 7.50011C5.4554 7.50011 4.93792 7.38402 4.47095 7.17523ZM9 3.75C9 5.40685 7.65685 6.75 6 6.75C4.34315 6.75 3 5.40685 3 3.75C3 2.09315 4.34315 0.75 6 0.75C7.65685 0.75 9 2.09315 9 3.75Z" fill="white"/>
</svg>
